<?xml version="1.0" encoding="UTF-8" standalone="no"?>
<svg
   width="256"
   height="256"
   fill="none"
   viewBox="0 0 256 256"
   version="1.1"
   id="svg5"
   sodipodi:docname="iOS-Dark.svg"
   inkscape:version="1.4.2 (f4327f4, 2025-05-13)"
   xmlns:inkscape="http://www.inkscape.org/namespaces/inkscape"
   xmlns:sodipodi="http://sodipodi.sourceforge.net/DTD/sodipodi-0.dtd"
   xmlns="http://www.w3.org/2000/svg"
   xmlns:svg="http://www.w3.org/2000/svg">
  <sodipodi:namedview
     id="namedview5"
     pagecolor="#ffffff"
     bordercolor="#666666"
     borderopacity="1.0"
     inkscape:showpageshadow="2"
     inkscape:pageopacity="0.0"
     inkscape:pagecheckerboard="0"
     inkscape:deskcolor="#d1d1d1"
     inkscape:zoom="3.5683594"
     inkscape:cx="168.28462"
     inkscape:cy="92.339353"
     inkscape:window-width="3840"
     inkscape:window-height="2066"
     inkscape:window-x="-11"
     inkscape:window-y="-11"
     inkscape:window-maximized="1"
     inkscape:current-layer="svg5" />
  <rect
     width="256"
     height="256"
     fill="#242938"
     rx="60"
     id="rect1"
     style="fill:#2c584d;fill-opacity:1" />
  <defs
     id="defs5">
    <linearGradient
       id="paint0_linear_2_47"
       x1="47.22"
       x2="146.333"
       y1="46.896"
       y2="145.02"
       gradientUnits="userSpaceOnUse">
      <stop
         stop-color="#387EB8"
         id="stop2" />
      <stop
         offset="1"
         stop-color="#366994"
         id="stop3" />
    </linearGradient>
    <linearGradient
       id="paint1_linear_2_47"
       x1="108.056"
       x2="214.492"
       y1="109.905"
       y2="210.522"
       gradientUnits="userSpaceOnUse">
      <stop
         stop-color="#FFE052"
         id="stop4" />
      <stop
         offset="1"
         stop-color="#FFC331"
         id="stop5" />
    </linearGradient>
    <clipPath
       id="a">
      <path
         fill="#ffffff"
         d="m 0.459,0.555 h 151 v 88 h -151 z"
         id="path3" />
    </clipPath>
    <linearGradient
       id="c"
       x1="104.61061"
       x2="104.61061"
       y2="37.039021"
       gradientTransform="scale(0.29208988,3.4236038)"
       y1="15.961631"
       gradientUnits="userSpaceOnUse">
      <stop
         stop-color="#0339F1"
         offset="0"
         id="stop3-9" />
      <stop
         stop-color="#01ADE5"
         offset="1"
         id="stop4-4" />
    </linearGradient>
    <linearGradient
       id="b"
       x1="54.804604"
       x2="101.43272"
       y1="58.307518"
       y2="109.79727"
       gradientTransform="scale(0.93053152,1.0746546)"
       gradientUnits="userSpaceOnUse">
      <stop
         stop-color="#0756EE"
         offset="0"
         id="stop5-8" />
      <stop
         stop-color="#00A3F5"
         offset=".37448"
         id="stop6" />
      <stop
         stop-color="#18B5B6"
         offset=".71708"
         id="stop7" />
      <stop
         stop-color="#80DF43"
         offset="1"
         id="stop8" />
    </linearGradient>
    <linearGradient
       id="a-8"
       x1="149.64282"
       x2="201.0253"
       y1="47.501324"
       y2="108.70309"
       gradientTransform="scale(0.82995643,1.2048825)"
       gradientUnits="userSpaceOnUse">
      <stop
         stop-color="#20BBA6"
         offset="0"
         id="stop9" />
      <stop
         stop-color="#9BEC23"
         offset=".4988"
         id="stop10" />
      <stop
         stop-color="#D9EF35"
         offset="1"
         id="stop11" />
    </linearGradient>
  </defs>
  <g
     id="g13"
     transform="matrix(1.2715897,0,0,1.2715897,-0.17261773,5.0544425)">
    <path
       d="M 32.882,137.54 H 28.3187 V 76.561 H 32.882 Z M 30.5354,61.613 c -1.9244,0 -3.5158,-1.5265 -3.5158,-3.4509 0,-1.9812 1.5833,-3.5158 3.5158,-3.5158 1.9812,0 3.5564,1.5265 3.5564,3.5158 0,1.9244 -1.5752,3.4509 -3.5564,3.4509 z"
       fill="url(#c)"
       id="path11"
       style="fill:url(#c);fill-rule:evenodd" />
    <path
       d="m 77.205,138.73 c -22.313,0 -36.409,-16.248 -36.409,-42.076 0,-25.699 14.161,-42.011 36.409,-42.011 22.248,0 36.401,16.313 36.401,42.011 0,25.829 -14.096,42.076 -36.401,42.076 z m 0,-79.89 c -19.422,0 -31.821,14.664 -31.821,37.813 0,23.166 12.456,37.887 31.821,37.887 19.422,0 31.821,-14.721 31.821,-37.887 0,-23.157 -12.399,-37.813 -31.821,-37.813 z"
       fill="url(#b)"
       id="path12"
       style="fill:url(#b);fill-rule:evenodd" />
    <path
       d="m 146.1,138.73 c -16.751,0 -28.76,-9.4595 -29.442,-22.987 h 4.474 c 0.68206,11.092 11.1,18.854 25.309,18.854 13.868,0 23.547,-7.8761 23.547,-18.513 0,-8.5582 -5.7731,-13.479 -19.471,-16.93 l -9.6787,-2.3791 c -15.111,-3.8569 -21.972,-9.971 -21.972,-20.21 0,-12.74 11.895,-21.915 26.787,-21.915 15.395,0 26.892,9.0616 27.404,21.063 h -4.474 c -0.62522,-9.7924 -10.19,-16.93 -23.044,-16.93 -12.293,0 -22.086,7.3646 -22.086,17.668 0,8.1603 6.0005,12.854 19.13,16.134 l 9.1184,2.3222 c 15.793,3.9056 22.873,9.971 22.873,20.835 0,13.527 -11.376,22.987 -28.476,22.987 z"
       fill="url(#a)"
       id="path13"
       style="fill:url(#a-8);fill-rule:evenodd" />
  </g>
</svg>
