<?xml version="1.0" encoding="UTF-8" standalone="no"?>
<svg
   width="256"
   height="256"
   fill="none"
   viewBox="0 0 256 256"
   version="1.1"
   id="svg5"
   sodipodi:docname="IronSource-Dark.svg"
   inkscape:version="1.4.2 (f4327f4, 2025-05-13)"
   xmlns:inkscape="http://www.inkscape.org/namespaces/inkscape"
   xmlns:sodipodi="http://sodipodi.sourceforge.net/DTD/sodipodi-0.dtd"
   xmlns="http://www.w3.org/2000/svg"
   xmlns:svg="http://www.w3.org/2000/svg">
  <sodipodi:namedview
     id="namedview5"
     pagecolor="#ffffff"
     bordercolor="#666666"
     borderopacity="1.0"
     inkscape:showpageshadow="2"
     inkscape:pageopacity="0.0"
     inkscape:pagecheckerboard="0"
     inkscape:deskcolor="#d1d1d1"
     inkscape:zoom="3.5683594"
     inkscape:cx="168.28462"
     inkscape:cy="92.339353"
     inkscape:window-width="3840"
     inkscape:window-height="2066"
     inkscape:window-x="-11"
     inkscape:window-y="-11"
     inkscape:window-maximized="1"
     inkscape:current-layer="svg5" />
  <rect
     width="256"
     height="256"
     fill="#242938"
     rx="60"
     id="rect1"
     style="fill:#2c584d;fill-opacity:1" />
  <defs
     id="defs5">
    <linearGradient
       id="paint0_linear_2_47"
       x1="47.22"
       x2="146.333"
       y1="46.896"
       y2="145.02"
       gradientUnits="userSpaceOnUse">
      <stop
         stop-color="#387EB8"
         id="stop2" />
      <stop
         offset="1"
         stop-color="#366994"
         id="stop3" />
    </linearGradient>
    <linearGradient
       id="paint1_linear_2_47"
       x1="108.056"
       x2="214.492"
       y1="109.905"
       y2="210.522"
       gradientUnits="userSpaceOnUse">
      <stop
         stop-color="#FFE052"
         id="stop4" />
      <stop
         offset="1"
         stop-color="#FFC331"
         id="stop5" />
    </linearGradient>
    <clipPath
       id="a">
      <path
         fill="#ffffff"
         d="m 0.459,0.555 h 151 v 88 h -151 z"
         id="path3" />
    </clipPath>
    <linearGradient
       id="c"
       x1="104.61061"
       x2="104.61061"
       y2="37.039021"
       gradientTransform="scale(0.29208988,3.4236038)"
       y1="15.961631"
       gradientUnits="userSpaceOnUse">
      <stop
         stop-color="#0339F1"
         offset="0"
         id="stop3-9" />
      <stop
         stop-color="#01ADE5"
         offset="1"
         id="stop4-4" />
    </linearGradient>
    <linearGradient
       id="b"
       x1="54.804604"
       x2="101.43272"
       y1="58.307518"
       y2="109.79727"
       gradientTransform="scale(0.93053152,1.0746546)"
       gradientUnits="userSpaceOnUse">
      <stop
         stop-color="#0756EE"
         offset="0"
         id="stop5-8" />
      <stop
         stop-color="#00A3F5"
         offset=".37448"
         id="stop6" />
      <stop
         stop-color="#18B5B6"
         offset=".71708"
         id="stop7" />
      <stop
         stop-color="#80DF43"
         offset="1"
         id="stop8" />
    </linearGradient>
    <linearGradient
       id="a-8"
       x1="149.64282"
       x2="201.0253"
       y1="47.501324"
       y2="108.70309"
       gradientTransform="scale(0.82995643,1.2048825)"
       gradientUnits="userSpaceOnUse">
      <stop
         stop-color="#20BBA6"
         offset="0"
         id="stop9" />
      <stop
         stop-color="#9BEC23"
         offset=".4988"
         id="stop10" />
      <stop
         stop-color="#D9EF35"
         offset="1"
         id="stop11" />
    </linearGradient>
  </defs>
  <ellipse
     style="fill:#f1f1f1;stroke:#ffffff;stroke-width:1.19497;fill-opacity:1"
     id="path1"
     cx="128.48175"
     cy="127.36946"
     rx="81.040894"
     ry="79.199051" />
  <path
     class="cls-1"
     d="M 128.01244,29.611302 A 98.388699,98.388699 0 1 0 226.3887,128.00624 98.382478,98.382478 0 0 0 128.01244,29.611302 Z M 80.268271,80.224726 H 107.1372 v 21.335814 l -26.875152,-0.0374 z m -8.358807,53.868564 c 3.684597,-1.20123 8.147192,-2.35889 8.153416,-5.55801 l 0.03112,-21.4105 27.0432,0.0436 v 18.09935 c 0,8.95008 -3.02485,13.98527 -9.640944,15.80891 6.927294,2.77589 9.609824,7.7115 9.597384,18.27983 v 15.49149 l -27.105447,-0.21784 v -20.24661 c 0,-4.03937 -4.456371,-4.53729 -8.134744,-5.78831 z m 75.870336,43.53675 c -24.36688,-0.0374 -36.0244,-13.03923 -35.9995,-29.43943 v -4.97918 l 27.3046,0.0374 v 2.15973 c 0,5.35262 2.76346,9.03099 8.09118,9.03722 4.89206,0 7.29451,-2.25308 7.30073,-6.06838 0,-10.83595 -41.74425,-9.07457 -41.70068,-39.43515 0,-16.369087 10.4065,-30.62823 36.22358,-30.590882 23.20301,0.03115 34.71114,13.070365 34.68625,29.420772 v 5.33395 l -27.29216,-0.0374 v -3.05597 c 0,-4.40036 -2.26553,-8.80071 -7.42521,-8.80693 -4.10783,0 -6.48539,2.27797 -6.49162,5.94389 0,11.98117 41.70068,8.96254 41.70068,39.31068 -0.0809,16.40641 -10.9542,31.20704 -36.41029,31.17592 z"
     id="path2"
     style="fill:#0d148c;fill-rule:evenodd;stroke-width:0.622398" />
</svg>
